<svg xmlns="http://www.w3.org/2000/svg" xmlns:xlink="http://www.w3.org/1999/xlink" width="240" height="156" viewBox="0 0 240 156">
  <defs>
    <style>
      .cls-1, .cls-4, .cls-6 {
        fill: #2a94f4;
      }

      .cls-1 {
        opacity: 0.07;
      }

      .cls-2 {
        opacity: 0.51;
      }

      .cls-3 {
        fill: #b8dbff;
      }

      .cls-5 {
        fill: #f7f7f7;
      }

      .cls-6 {
        opacity: 0.17;
      }

      .cls-7 {
        clip-path: url(#clip-path);
      }

      .cls-8 {
        fill: #b97a59;
      }

      .cls-9 {
        fill: #0b4870;
      }

      .cls-10 {
        fill: #fa0;
      }

      .cls-11 {
        fill: #aa6b4f;
      }

      .cls-12 {
        fill: #b2d9ff;
      }
    </style>
    <clipPath id="clip-path">
      <circle id="椭圆_164" data-name="椭圆 164" cx="9.292" cy="9.292" r="9.292"/>
    </clipPath>
  </defs>
  <g id="组_4577" data-name="组 4577" transform="translate(-440.769 -195.337)">
    <path id="减去_1" data-name="减去 1" class="cls-1" d="M170.954,147.543H23.672a6.149,6.149,0,0,1-2.5-1.136,18.184,18.184,0,0,1-3.7-4.912,23.889,23.889,0,0,1-2.042-5.679,71.011,71.011,0,0,1-1.318-12.7c-.329-7.391-.668-15.034-4.693-21.1a42.238,42.238,0,0,0-3.612-4.479c-2.121-2.4-4.313-4.878-5.263-7.881-1.487-4.7.083-10.217,4.667-16.4.9-1.2,1.863-2.393,2.8-3.549,2.8-3.458,5.689-7.033,7.128-11.219,1.528-4.434,1.022-9.776-1.463-15.451a10.365,10.365,0,0,1-.4-6.074,19.983,19.983,0,0,1,3-7.089,23.157,23.157,0,0,1,19.637-10.4c.646,0,1.307.024,1.964.071.245.017.491.026.732.026,4.219,0,7.311-2.657,10.585-5.469C52.093,11.6,55.1,9.017,59.235,7.81A39.852,39.852,0,0,1,70.26,6.4,68.81,68.81,0,0,1,90.709,9.764,37.41,37.41,0,0,0,102.147,11.9c4.919,0,8.52-1.621,10.7-4.818C115.8,2.714,121.531,0,127.8,0a21.282,21.282,0,0,1,10.412,2.709,22.4,22.4,0,0,1,8.581,8.781c3.116,5.553,5.773,9.484,11.6,9.484.3,0,.615-.011.93-.033,1.225-.079,2.429-.119,3.58-.119a32.681,32.681,0,0,1,14.506,2.923,21.4,21.4,0,0,1,4.819,3.246,21.784,21.784,0,0,1,3.52,4.074c3.936,5.862,5.061,13.219,5.965,19.13.566,3.7,1.055,6.9,2.1,8.781.773,1.407,1.654,2.818,2.505,4.182,2.481,3.973,5.045,8.08,5.318,12.678a17.4,17.4,0,0,1-2.032,8.834,61.9,61.9,0,0,1-5.182,8.144,54.822,54.822,0,0,0-5.915,9.652c-2.525,5.835-2.655,12.314-2.78,18.579-.118,5.89-.24,11.98-2.344,17.547a14.057,14.057,0,0,1-4.788,5.563,24.479,24.479,0,0,1-7.647,3.389Zm23.1-37.307a2.172,2.172,0,0,1-1.512-.5,3.023,3.023,0,0,1-.731-2.317,18.9,18.9,0,0,1,.136-2.272,1.831,1.831,0,0,1,1.418-1.863,8.644,8.644,0,0,1,3.022-.6,3.065,3.065,0,0,1,1.919.508c.724.648.361,2.2.039,3.574-.085.362-.165.7-.222,1.016a2.592,2.592,0,0,1-.5,1.272,3.181,3.181,0,0,1-1.672.845l-.067.019A6.845,6.845,0,0,1,194.05,110.237ZM5.53,67.339a2.8,2.8,0,0,1-1.556-.546,4.75,4.75,0,0,1-2.013-3.317c-.24-1.86.754-3.673,1.647-5.044a6.5,6.5,0,0,1,2.425-2.408,3.272,3.272,0,0,1,1.406-.37,2.146,2.146,0,0,1,2.025,1.733,7.451,7.451,0,0,0,.742,1.436,4.2,4.2,0,0,1,.905,2.745A4.3,4.3,0,0,1,10.1,63.476l-.319.4a14.731,14.731,0,0,1-2.564,2.733A2.99,2.99,0,0,1,5.53,67.339Zm28.218-49.41a3.687,3.687,0,0,1-.96-.177l-.01,0-.121-.033a1.362,1.362,0,0,1-.475-.233.378.378,0,0,1-.166-.4.721.721,0,0,1,.321-.319,3.4,3.4,0,0,1,1.369-.377,1.47,1.47,0,0,1,.827.24.588.588,0,0,1,.328.595.9.9,0,0,1-.648.633A1.348,1.348,0,0,1,33.748,17.929Zm4.379-.061a1.854,1.854,0,0,1-1.171-.333,1.023,1.023,0,0,1-.4-.758,1.108,1.108,0,0,1,.313-.878,2.614,2.614,0,0,1,.961-.512l.091-.034a3.547,3.547,0,0,0,1.647-1.182.916.916,0,0,1,.366-.454,2.059,2.059,0,0,1,.917-.159c1.227,0,3.2.523,3.49,1.343.111.311-.033.632-.428.951a9.85,9.85,0,0,1-5.444,2C38.334,17.863,38.227,17.868,38.127,17.868Zm62.144-7.246c-4.485,0-4.485-1.959-4.485-3.13,0-1.4,1.852-1.579,3.466-1.579.352,0,.7.009,1.049.019l.069,0c.31.008.6.016.853.016q.124,0,.236,0c1.74,0,3.156,1.04,3.156,2.317,0,1.227-1.357,2.224-3.156,2.317C101.047,10.608,100.647,10.622,100.271,10.622Z" transform="translate(460.589 200.86)"/>
    <g id="组_4565" data-name="组 4565" class="cls-2" transform="translate(591.614 302.649)">
      <path id="路径_3093" data-name="路径 3093" class="cls-3" d="M609.992,651.707c-1.048-2,1.366-4.145,3.6-4.555s4.737-.091,6.468-1.5c2.369-1.868,2.232-5.921,4.828-7.425,2.1-1.184,4.874-.046,7.06-1,2.733-1.184,3.507-5.01,6.24-6.286a4.816,4.816,0,0,1,6.058,2.232,6.334,6.334,0,0,1-.911,6.7c-1.184,1.412-2.961,2.46-3.689,4.145-1.139,2.687.683,5.921-.41,8.654-1.959,5.01-11.251,3.507-12.891,8.654a15.563,15.563,0,0,0-.319,3.6c-.273,3.553-2.779,6.65-5.876,8.427s-6.741,2.369-10.294,2.642a8,8,0,0,1-4.282-.547,7,7,0,0,1-2.733-3.006c-4.282-7.7-6.058-17.81,7.151-20.725" transform="translate(-599.697 -630.548)"/>
    </g>
    <g id="组_4566" data-name="组 4566" class="cls-2" transform="translate(490.896 288.227)">
      <path id="路径_3094" data-name="路径 3094" class="cls-3" d="M420.744,627.5c1.458-2.369-1.275-5.193-3.963-5.876s-5.739-.547-7.789-2.414c-2.687-2.505-2.186-7.47-5.238-9.52-2.46-1.64-5.921-.5-8.563-1.867-3.28-1.685-3.826-6.468-7.015-8.29a5.933,5.933,0,0,0-7.652,2.186,7.716,7.716,0,0,0,.5,8.29c1.321,1.868,3.371,3.28,4.145,5.42,1.184,3.371-1.366,7.2-.319,10.613,1.959,6.331,13.483,5.329,14.94,11.8a20.435,20.435,0,0,1,.046,4.418c0,4.373,2.779,8.427,6.422,10.886s8.017,3.553,12.344,4.191a9.446,9.446,0,0,0,5.284-.273,8.755,8.755,0,0,0,3.644-3.416c5.967-9.155,9.064-21.363-6.787-26.145" transform="translate(-379.54 -598.886)"/>
    </g>
    <path id="路径_3095" data-name="路径 3095" class="cls-3" d="M635.867,406.538l-3.189,1.093-1.366-3.963a14.1,14.1,0,1,0-26.646,9.247l1.366,3.963-3.189,1.093a4.8,4.8,0,0,0-2.961,6.1l8.973,25.918a4.838,4.838,0,0,0,6.1,3.006l32.978-11.433a4.869,4.869,0,0,0,3.006-6.149L641.971,409.5A4.724,4.724,0,0,0,635.867,406.538Zm-25.143,4.236a7.714,7.714,0,1,1,14.576-5.056l1.367,3.963-14.576,5.056Zm19.131,23.64,2.277,6.6a.589.589,0,0,1-.365.683l-3.188,1.093a.51.51,0,0,1-.638-.319l-2.277-6.6a6.154,6.154,0,1,1,4.191-1.458Z" transform="translate(-8.017 -198.851)"/>
    <g id="组_4568" data-name="组 4568" transform="translate(592.766 270.651)">
      <g id="组_4567" data-name="组 4567" transform="translate(0 8.762)">
        <path id="路径_3096" data-name="路径 3096" class="cls-3" d="M603.124,635.774c3.234-1.366,6.1-3.963,8.518-6.422,6.468-6.7,10.476-15.4,12.617-24.414a91.232,91.232,0,0,0,1.959-24.87c-.046-.683-1.139-.729-1.093,0,.911,18.721-2.824,41.632-19.541,53.02a19.321,19.321,0,0,1-2.961,1.731c-.683.273-.137,1.23.5.956Z" transform="translate(-602.307 -579.537)"/>
      </g>
      <path id="路径_3097" data-name="路径 3097" class="cls-3" d="M650.8,620.015s1.048-6.058,9.064-7.015C659.91,613,656.949,620.151,650.8,620.015Z" transform="translate(-628.712 -588.995)"/>
      <path id="路径_3098" data-name="路径 3098" class="cls-3" d="M645.1,642.261s2.46-5.648,10.476-4.692C655.531,637.57,651.021,643.855,645.1,642.261Z" transform="translate(-625.608 -602.315)"/>
      <path id="路径_3099" data-name="路径 3099" class="cls-3" d="M637.6,661.75s3.644-4.965,11.251-2.232C648.851,659.519,643.02,664.62,637.6,661.75Z" transform="translate(-621.524 -613.878)"/>
      <path id="路径_3100" data-name="路径 3100" class="cls-3" d="M653.5,599.478s1.048-5.967,8.928-6.878C662.428,592.6,659.558,599.66,653.5,599.478Z" transform="translate(-630.182 -577.888)"/>
      <path id="路径_3101" data-name="路径 3101" class="cls-3" d="M650.965,571.551s-4.509-4.054-1.093-11.251C649.871,560.346,654.29,566.495,650.965,571.551Z" transform="translate(-627.51 -560.3)"/>
      <path id="路径_3102" data-name="路径 3102" class="cls-3" d="M645.632,587.773s-5.967-1.093-6.832-8.973C638.846,578.754,645.86,581.715,645.632,587.773Z" transform="translate(-622.178 -570.373)"/>
      <path id="路径_3103" data-name="路径 3103" class="cls-3" d="M644.332,607.673s-5.967-1.093-6.832-8.973C637.546,598.7,644.56,601.615,644.332,607.673Z" transform="translate(-621.47 -581.209)"/>
      <path id="路径_3104" data-name="路径 3104" class="cls-3" d="M641.749,625.828s-5.876-1.5-6.149-9.429C635.6,616.354,642.387,619.77,641.749,625.828Z" transform="translate(-620.435 -590.846)"/>
      <path id="路径_3105" data-name="路径 3105" class="cls-3" d="M635.849,644.429s-5.876-1.5-6.149-9.429C629.7,635,636.487,638.416,635.849,644.429Z" transform="translate(-617.223 -600.975)"/>
    </g>
    <g id="组_4570" data-name="组 4570" transform="translate(500.825 268.374)">
      <g id="组_4569" data-name="组 4569" transform="translate(8.215 8.762)">
        <path id="路径_3106" data-name="路径 3106" class="cls-3" d="M442.55,630.774c-3.234-1.366-6.1-3.963-8.518-6.422-6.468-6.7-10.476-15.4-12.617-24.414a91.23,91.23,0,0,1-1.959-24.87c.046-.683,1.139-.729,1.093,0-.911,18.721,2.824,41.632,19.541,53.02a19.321,19.321,0,0,0,2.961,1.731c.683.273.137,1.23-.5.957Z" transform="translate(-419.336 -574.537)"/>
      </g>
      <path id="路径_3107" data-name="路径 3107" class="cls-3" d="M412.764,615.015s-1.048-6.058-9.064-7.015C403.654,608,406.615,615.151,412.764,615.015Z" transform="translate(-402.606 -583.995)"/>
      <path id="路径_3108" data-name="路径 3108" class="cls-3" d="M416.876,637.261s-2.46-5.648-10.476-4.692C406.4,632.57,410.909,638.855,416.876,637.261Z" transform="translate(-404.077 -597.314)"/>
      <path id="路径_3109" data-name="路径 3109" class="cls-3" d="M423.45,656.75s-3.644-4.965-11.251-2.232C412.154,654.518,417.984,659.62,423.45,656.75Z" transform="translate(-407.235 -608.878)"/>
      <path id="路径_3110" data-name="路径 3110" class="cls-3" d="M410.228,594.478s-1.048-5.967-8.928-6.878C401.3,587.6,404.17,594.66,410.228,594.478Z" transform="translate(-401.3 -572.888)"/>
      <path id="路径_3111" data-name="路径 3111" class="cls-3" d="M419.195,566.551s4.509-4.054,1.093-11.251C420.288,555.346,415.824,561.495,419.195,566.551Z" transform="translate(-410.358 -555.3)"/>
      <path id="路径_3112" data-name="路径 3112" class="cls-3" d="M420.594,582.773s5.967-1.093,6.832-8.973C427.426,573.754,420.366,576.715,420.594,582.773Z" transform="translate(-411.803 -565.373)"/>
      <path id="路径_3113" data-name="路径 3113" class="cls-3" d="M421.894,602.673s5.967-1.093,6.832-8.973C428.726,593.7,421.666,596.615,421.894,602.673Z" transform="translate(-412.51 -576.209)"/>
      <path id="路径_3114" data-name="路径 3114" class="cls-3" d="M425.249,620.828s5.876-1.5,6.149-9.429C431.4,611.354,424.612,614.77,425.249,620.828Z" transform="translate(-414.318 -585.846)"/>
      <path id="路径_3115" data-name="路径 3115" class="cls-3" d="M431.15,639.429s5.876-1.5,6.149-9.429C437.3,630,430.512,633.416,431.15,639.429Z" transform="translate(-417.53 -595.975)"/>
    </g>
    <g id="组_4574" data-name="组 4574" transform="translate(528.903 210.693)">
      <path id="路径_3116" data-name="路径 3116" class="cls-4" d="M523.718,566.431H472.111a9.6,9.6,0,0,1-9.611-9.587V437.487a9.6,9.6,0,0,1,9.611-9.587h51.562a9.6,9.6,0,0,1,9.611,9.587V556.844A9.562,9.562,0,0,1,523.718,566.431Z" transform="translate(-462.5 -427.9)"/>
      <path id="路径_3117" data-name="路径 3117" class="cls-5" d="M527.229,566.358H476.441a6.717,6.717,0,0,1-6.741-6.723V443.523a6.717,6.717,0,0,1,6.741-6.723h50.788a6.717,6.717,0,0,1,6.741,6.723V559.635A6.717,6.717,0,0,1,527.229,566.358Z" transform="translate(-466.421 -432.746)"/>
      <path id="路径_3118" data-name="路径 3118" class="cls-4" d="M529.9,435.384h-4.19a2.333,2.333,0,0,0-2.323,2.323v1.64a2.333,2.333,0,0,1-2.323,2.323h-18.63a2.333,2.333,0,0,1-2.323-2.323v-1.64a2.333,2.333,0,0,0-2.323-2.323H485.9V434.2h44Z" transform="translate(-475.241 -431.33)"/>
      <g id="组_4573" data-name="组 4573" transform="translate(25.234 40.103)">
        <circle id="椭圆_163" data-name="椭圆 163" class="cls-6" cx="9.292" cy="9.292" r="9.292"/>
        <g id="组_4572" data-name="组 4572">
          <g id="组_4571" data-name="组 4571" class="cls-7">
            <path id="路径_3119" data-name="路径 3119" class="cls-4" d="M535.364,527.6a3.6,3.6,0,1,1-3.6-3.6A3.577,3.577,0,0,1,535.364,527.6Zm1.822,14.8v-5.147a5.239,5.239,0,0,0-5.238-5.238h-.41a5.239,5.239,0,0,0-5.238,5.238V542.4a1.439,1.439,0,0,0,1.458,1.458h7.971A1.439,1.439,0,0,0,537.186,542.4Z" transform="translate(-522.474 -520.447)"/>
          </g>
        </g>
      </g>
      <path id="路径_3120" data-name="路径 3120" class="cls-6" d="M529.537,571.479H484.99a3.674,3.674,0,0,1-3.689-3.689h0a3.674,3.674,0,0,1,3.689-3.69h44.547a3.674,3.674,0,0,1,3.69,3.69h0A3.7,3.7,0,0,1,529.537,571.479Z" transform="translate(-472.737 -502.227)"/>
      <path id="路径_3121" data-name="路径 3121" class="cls-4" d="M533.107,572.013h-41.45a.934.934,0,0,1-.957-.956h0a.934.934,0,0,1,.957-.957h41.45a.934.934,0,0,1,.957.957h0A.962.962,0,0,1,533.107,572.013Z" transform="translate(-477.855 -505.494)"/>
      <path id="路径_3122" data-name="路径 3122" class="cls-6" d="M529.637,600.479H485.09a3.674,3.674,0,0,1-3.69-3.69h0a3.674,3.674,0,0,1,3.69-3.689h44.547a3.674,3.674,0,0,1,3.689,3.689h0A3.7,3.7,0,0,1,529.637,600.479Z" transform="translate(-472.791 -518.052)"/>
      <path id="路径_3123" data-name="路径 3123" class="cls-4" d="M490.857,601.213h0a.934.934,0,0,1-.957-.957h0a.934.934,0,0,1,.957-.957h0a.934.934,0,0,1,.956.957h0A.962.962,0,0,1,490.857,601.213Zm3.826-.957h0a.934.934,0,0,0-.957-.957h0a.934.934,0,0,0-.957.957h0a.934.934,0,0,0,.957.957h0A.962.962,0,0,0,494.683,600.257Zm2.824,0h0a.934.934,0,0,0-.957-.957h0a.934.934,0,0,0-.957.957h0a.934.934,0,0,0,.957.957h0A.934.934,0,0,0,497.507,600.257Zm2.87,0h0a.934.934,0,0,0-.957-.957h0a.934.934,0,0,0-.957.957h0a.934.934,0,0,0,.957.957h0A.934.934,0,0,0,500.376,600.257Zm2.87,0h0a.934.934,0,0,0-.957-.957h0a.934.934,0,0,0-.957.957h0a.934.934,0,0,0,.957.957h0A.934.934,0,0,0,503.246,600.257Zm2.87,0h0a.934.934,0,0,0-.957-.957h0a.934.934,0,0,0-.957.957h0a.934.934,0,0,0,.957.957h0A.962.962,0,0,0,506.116,600.257Zm2.87,0h0a.934.934,0,0,0-.957-.957h0a.934.934,0,0,0-.957.957h0a.934.934,0,0,0,.957.957h0A.962.962,0,0,0,508.985,600.257Z" transform="translate(-477.42 -521.427)"/>
    </g>
    <g id="组_4576" data-name="组 4576" transform="translate(467.703 243.061)">
      <path id="路径_3124" data-name="路径 3124" class="cls-8" d="M401.713,703s-.957,5.284-1.184,6.195a4.165,4.165,0,0,1-1.275,1.822,2.308,2.308,0,0,0-.41.82.838.838,0,0,0,.091.729c2.414,3.872,7.47,4.6,7.516,4.281.091-.592-.865-1.594-1.959-2a3.481,3.481,0,0,1-2.186-2.505h0a5.232,5.232,0,0,1,.045-2.779l1.184-4.054Z" transform="translate(-367.064 -610.411)"/>
      <path id="路径_3125" data-name="路径 3125" class="cls-8" d="M398.7,703.048l1.184,5.329a7.109,7.109,0,0,1-.638,4.828h0a1.551,1.551,0,0,0,.82,2.186c2.87,1,8.381,2.961,8.609,2.733,1.275-1.048-2.05-2.824-4.509-4.646-1.64-1.23-2.278-7.06-2.414-11.478l-2.642.683A.432.432,0,0,0,398.7,703.048Z" transform="translate(-367.012 -609.867)"/>
      <path id="路径_3126" data-name="路径 3126" class="cls-9" d="M403.7,728.05a20.5,20.5,0,0,0,3.644.683.871.871,0,0,1,.364.137c1.139.866,1.731,1.776,1.048,2.323-.273.228-6.787-2.1-9.292-2.961a.921.921,0,0,1-.5-1.321l.5-.911A20.207,20.207,0,0,0,403.7,728.05Z" transform="translate(-367.091 -622.935)"/>
      <path id="路径_3127" data-name="路径 3127" class="cls-9" d="M396.663,584.256c-3.006,1.048-4.874,5.147-3.507,8.973a118.6,118.6,0,0,0,8.245,15.9,7.636,7.636,0,0,1,.364,7.516,9.245,9.245,0,0,0-.5,1.184c-.592,2-2.141,13.3-2.915,20.816a3.987,3.987,0,0,0,1.913,2.186c2.642-6.787,6.65-18.994,7.288-21.135a32.788,32.788,0,0,0,.957-3.781c1.822-3.826-2.46-22.183-3.735-25.781C403.4,586.352,399.624,583.209,396.663,584.256Z" transform="translate(-363.745 -545.643)"/>
      <ellipse id="椭圆_165" data-name="椭圆 165" class="cls-9" cx="4.828" cy="6.24" rx="4.828" ry="6.24" transform="translate(29.957 4.861)"/>
      <path id="路径_3128" data-name="路径 3128" class="cls-9" d="M377.481,517.644a6.725,6.725,0,0,0-13.027-2.186,2.415,2.415,0,0,1-2.277,1.549,6.4,6.4,0,0,0-1.275.137,5.971,5.971,0,0,0-2.141,10.8,3.051,3.051,0,0,1,1.275,2.232,7.8,7.8,0,0,0,8.609,6.65,7.821,7.821,0,0,0,4.965-12.982A6.673,6.673,0,0,0,377.481,517.644Z" transform="translate(-343.835 -505.906)"/>
      <path id="路径_3129" data-name="路径 3129" class="cls-9" d="M405.5,504.09s2.733,1.731,2.369,4.008c0,0,1.458-1.048,1.776-4.555C409.918,501.084,405.5,504.09,405.5,504.09Z" transform="translate(-370.715 -501.279)"/>
      <path id="路径_3130" data-name="路径 3130" class="cls-8" d="M411.5,532.273a20.956,20.956,0,0,0,4.418,1.685,12.219,12.219,0,0,0,4.646.137c1.64-.228,3.325-.683,5.147-1a17.259,17.259,0,0,1,5.511-.137.611.611,0,0,1,.5.683.582.582,0,0,1-.547.5h0a16.9,16.9,0,0,0-4.965,1c-1.594.547-3.234,1.275-5.056,1.822a14.731,14.731,0,0,1-5.83.547,21.22,21.22,0,0,1-5.6-1.5,2.077,2.077,0,0,1,1.5-3.872c.046,0,.091.046.137.046Z" transform="translate(-372.294 -517.301)"/>
      <path id="路径_3131" data-name="路径 3131" class="cls-10" d="M397.711,545.031c1.093-3.28,3.28-10.249,3.1-12.48A2.78,2.78,0,0,0,398.03,530h-9.52a2.917,2.917,0,0,0-2.915,2.824c-.091,2.733,1.184,8.973,1.913,12.253h10.2Z" transform="translate(-359.873 -516.212)"/>
      <path id="路径_3132" data-name="路径 3132" class="cls-9" d="M391.065,636.931a.56.56,0,0,0,.228-.455c-.182-6.969-.638-15.851-.774-17.536a3.139,3.139,0,0,0-.091-.592c1.5-8.245,1.731-25.918,1.868-29.015.182-4.054-2.277-8.654-5.42-8.837-3.188-.137-6.6,3.143-7.607,6.878-.683,2.46,1.913,15.578,4.737,25.1a14.037,14.037,0,0,1,.364,6.149,17.636,17.636,0,0,0-.182,4.008c.137,1.685,2,8.472,3.781,14.348a.387.387,0,0,0,.364.319A3.4,3.4,0,0,0,391.065,636.931Z" transform="translate(-356.371 -543.704)"/>
      <path id="路径_3133" data-name="路径 3133" class="cls-10" d="M384.287,549.176a8.587,8.587,0,0,0,.41-4.282c-.456-3.371-1.321-9.656-1.23-12.344A2.625,2.625,0,0,1,386.109,530h1.412a3.579,3.579,0,0,0,3.416,2.186A3.534,3.534,0,0,0,394.354,530h1.321a8.552,8.552,0,0,0,1.549,9.474c-.455,1.64-.865,3.234-1.139,4.555a8.575,8.575,0,0,0,.5,5.329c1.23,2.915,2.186,7.561,1.867,9.429A20.484,20.484,0,0,1,381.6,556.6Z" transform="translate(-357.701 -516.212)"/>
      <g id="组_4575" data-name="组 4575" transform="translate(30.504 9.279)">
        <path id="路径_3134" data-name="路径 3134" class="cls-8" d="M400.382,525.247l-4.282-.456,1.367-4.692,2.779.319Z" transform="translate(-396.1 -520.1)"/>
      </g>
      <path id="路径_3135" data-name="路径 3135" class="cls-11" d="M401.388,520.364,398.61,520l-.41,1.458c.638.683,1.412,2.232,2.414,2.232a1.5,1.5,0,0,0,.865-.273Z" transform="translate(-366.74 -510.767)"/>
      <path id="路径_3136" data-name="路径 3136" class="cls-8" d="M399.683,514.964c-.957,0-1.959-.456-3.371-1.685A4.124,4.124,0,0,1,394.9,510.5v-4.6h7.06a12.621,12.621,0,0,1,0,4.874C401.6,512.6,400.412,514.964,399.683,514.964Z" transform="translate(-364.943 -503.089)"/>
      <path id="路径_3137" data-name="路径 3137" class="cls-8" d="M395.05,512.192c0,.911-.41,1.64-.957,1.64S393,512.647,393,511.782a1.05,1.05,0,0,1,1.093-1.184C394.64,510.552,395.05,511.281,395.05,512.192Z" transform="translate(-363.908 -505.646)"/>
      <path id="路径_3138" data-name="路径 3138" class="cls-9" d="M392.946,503.086a2.625,2.625,0,0,1,2.6-2.6h2.369a3.863,3.863,0,0,0,1.913-.5,1.892,1.892,0,0,1,2.46.456c.638.82.911,1.959-.683,3.006-.774.5-1.913-.045-2.687.182h-2.232a1.352,1.352,0,0,0-1.321,1.321.856.856,0,0,1-.865.82H394.4l-.319-1.093-1.184,1.594v-3.188Z" transform="translate(-363.854 -499.729)"/>
      <path id="路径_3139" data-name="路径 3139" class="cls-8" d="M460.272,527.392s-1.139,2.232-1.913,2.1-1.321-.319-1.184-1.5a8.953,8.953,0,0,1,1.458-3.507,6.38,6.38,0,0,1,2.505-1.776c.865.046-.41,1.412-1,2.141-.592.683-1.184,1.549-.774,1.731s1.458-1.23,2-1.184S460.272,527.392,460.272,527.392Z" transform="translate(-398.84 -512.237)"/>
      <path id="路径_3140" data-name="路径 3140" class="cls-9" d="M398.628,503.413c-.228,1.048.091,1.64-3.325,3.28-3.462,1.64-4.509.956-5.6,2.687,0,0,.456-2.915,2.369-3.917s5.193-1.64,6.24-3.963A4.805,4.805,0,0,1,398.628,503.413Z" transform="translate(-362.111 -500.693)"/>
      <path id="路径_3141" data-name="路径 3141" class="cls-8" d="M361.252,529.722a3.984,3.984,0,0,0-.455.365l-.41.273a7.928,7.928,0,0,1-.82.5c-.547.319-1.139.592-1.731.865a17.471,17.471,0,0,1-3.735,1.048,15.368,15.368,0,0,1-7.607-.911,17.715,17.715,0,0,1-3.325-1.731,23.812,23.812,0,0,1-2.915-2.277,31.385,31.385,0,0,1-4.646-5.511.448.448,0,0,1,.137-.638.432.432,0,0,1,.592.091h0a37.643,37.643,0,0,0,5.056,4.691,19.054,19.054,0,0,0,5.876,3.052,15.15,15.15,0,0,0,3.143.547,14.611,14.611,0,0,0,3.143-.228,13.6,13.6,0,0,0,3.006-.957c.456-.228.957-.455,1.412-.729.228-.137.456-.273.638-.41.091-.091.228-.137.319-.228l.273-.182.091-.091a1.572,1.572,0,1,1,1.959,2.46Z" transform="translate(-332.616 -511.652)"/>
      <path id="路径_3142" data-name="路径 3142" class="cls-9" d="M407.787,505.3a6.642,6.642,0,0,0,3.234,5.238,11.657,11.657,0,0,1-1.275-4.418C409.837,504.341,407.605,504.068,407.787,505.3Z" transform="translate(-371.954 -502.35)"/>
      <path id="路径_3143" data-name="路径 3143" class="cls-9" d="M396.906,724.5a.7.7,0,0,1-.182-.82c.137-.228.456-.82.683-1.276a.3.3,0,0,1,.5-.045c1.549,2.05,3.69,3.416,6.1,3.234.865.364,1.594,1.412,1.5,1.913a3.151,3.151,0,0,1-2.277-.045C397.862,725.687,396.906,724.5,396.906,724.5Z" transform="translate(-365.901 -620.89)"/>
      <path id="路径_3144" data-name="路径 3144" class="cls-8" d="M333.034,514.942s1.5,2,1.048,2.687-.911,1.048-1.868.41a8.628,8.628,0,0,1-2.551-2.915,6.665,6.665,0,0,1-.5-3.052c.455-.774,1.139,1,1.5,1.867s.865,1.776,1.23,1.458c.364-.273-.5-1.867-.182-2.323C332.032,512.573,333.034,514.942,333.034,514.942Z" transform="translate(-329.131 -506.346)"/>
    </g>
    <path id="路径_3145" data-name="路径 3145" class="cls-12" d="M502.914,733.933H277.086c-3.931,0-7.086-.653-7.086-1.467h0c0-.814,3.154-1.467,7.086-1.467H502.914s7.086.653,7.086,1.467h0C510,733.281,506.846,733.933,502.914,733.933Z" transform="translate(170.769 -382.596)"/>
    <path id="路径_3146" data-name="路径 3146" class="cls-3" d="M328.078,462.034l-2.961-3.234L288.86,491.96a9.7,9.7,0,1,0,3.826,4.692,11.621,11.621,0,0,0-.5-1.093l27.466-25.644,3.28,3.234,3.28-3.325-2.6-2.6,1-1.184,2.687,2.414,2.277-2.6-2.824-2.6ZM285.9,505.989a6.315,6.315,0,1,1,3.644-8.153A6.313,6.313,0,0,1,285.9,505.989Z" transform="translate(168.626 -234.13)"/>
  </g>
</svg>
