<svg xmlns="http://www.w3.org/2000/svg" xmlns:xlink="http://www.w3.org/1999/xlink" width="263.194" height="166.001" viewBox="0 0 263.194 166.001">
  <defs>
    <style>
      .cls-1 {
        fill: #f7f7f7;
      }

      .cls-2, .cls-6 {
        fill: #2a94f4;
      }

      .cls-2 {
        opacity: 0.07;
      }

      .cls-3 {
        fill: #b8dbff;
      }

      .cls-4 {
        fill: none;
        stroke: #b8dbff;
        stroke-linecap: round;
        stroke-linejoin: round;
        stroke-miterlimit: 10;
        stroke-dasharray: 1 2;
      }

      .cls-5 {
        opacity: 0.51;
      }

      .cls-7 {
        fill: #b2d9ff;
      }

      .cls-8 {
        fill: #50b674;
      }

      .cls-9 {
        fill: #fff;
      }

      .cls-10 {
        clip-path: url(#clip-path);
      }

      .cls-11, .cls-14 {
        fill: #0078ef;
      }

      .cls-11 {
        opacity: 0.05;
      }

      .cls-12 {
        fill: #d5e7f7;
      }

      .cls-13 {
        fill: #88c4ff;
      }

      .cls-15 {
        fill: #b97a59;
      }

      .cls-16 {
        fill: #0b4870;
      }

      .cls-17 {
        fill: #fa0;
      }

      .cls-18 {
        fill: #0a4770;
      }
    </style>
    <clipPath id="clip-path">
      <path id="路径_3157" data-name="路径 3157" class="cls-1" d="M533.017,579.777h-55.9a7.4,7.4,0,0,1-7.42-7.42V444.22a7.4,7.4,0,0,1,7.42-7.42h55.9a7.4,7.4,0,0,1,7.42,7.42V572.358A7.4,7.4,0,0,1,533.017,579.777Z" transform="translate(-469.7 -436.8)"/>
    </clipPath>
  </defs>
  <g id="组_4581" data-name="组 4581" transform="translate(-314 -175.999)">
    <path id="减去_1" data-name="减去 1" class="cls-2" d="M187.346,162.773H25.943a6.72,6.72,0,0,1-2.738-1.254,20.048,20.048,0,0,1-4.059-5.419,26.464,26.464,0,0,1-2.238-6.265,78.843,78.843,0,0,1-1.445-14.013c-.36-8.154-.732-16.586-5.143-23.282A46.522,46.522,0,0,0,6.362,107.6C4.039,104.952,1.636,102.217.6,98.9c-1.63-5.183.091-11.271,5.113-18.1.981-1.321,2.04-2.639,3.065-3.914,3.067-3.816,6.237-7.761,7.814-12.38,1.675-4.892,1.12-10.786-1.6-17.045a11.508,11.508,0,0,1-.437-6.7,22.124,22.124,0,0,1,3.284-7.821A25.336,25.336,0,0,1,39.35,21.471c.708,0,1.432.026,2.153.079.268.019.538.029.8.029,4.623,0,8.012-2.931,11.6-6.033,3.182-2.752,6.473-5.6,11.009-6.929A43.4,43.4,0,0,1,77,7.058a74.95,74.95,0,0,1,22.41,3.713,40.753,40.753,0,0,0,12.535,2.357c5.391,0,9.337-1.788,11.729-5.315C126.907,2.994,133.185,0,140.054,0a23.2,23.2,0,0,1,11.41,2.989,24.638,24.638,0,0,1,9.4,9.688c3.415,6.127,6.326,10.463,12.717,10.463.331,0,.674-.012,1.019-.036,1.342-.087,2.661-.131,3.923-.131a43.615,43.615,0,0,1,8.927.856,29.106,29.106,0,0,1,6.97,2.369,23.443,23.443,0,0,1,5.281,3.582,23.988,23.988,0,0,1,3.858,4.494c4.314,6.467,5.547,14.583,6.537,21.1.62,4.084,1.156,7.612,2.3,9.687.847,1.553,1.813,3.11,2.747,4.616,2.718,4.381,5.528,8.912,5.826,13.983a19.3,19.3,0,0,1-2.227,9.746,68.35,68.35,0,0,1-5.68,8.985,60.569,60.569,0,0,0-6.482,10.647c-2.766,6.438-2.908,13.585-3.046,20.5-.129,6.5-.263,13.217-2.569,19.359a15.479,15.479,0,0,1-5.247,6.137,26.736,26.736,0,0,1-8.381,3.739Zm25.311-41.158a2.372,2.372,0,0,1-1.657-.552,3.349,3.349,0,0,1-.8-2.557,21.013,21.013,0,0,1,.15-2.506,2.023,2.023,0,0,1,1.554-2.056,9.425,9.425,0,0,1,3.31-.66,3.346,3.346,0,0,1,2.1.561c.794.714.4,2.428.044,3.941-.093.4-.181.779-.244,1.123a2.884,2.884,0,0,1-.551,1.4,3.49,3.49,0,0,1-1.837.933l-.068.019A7.417,7.417,0,0,1,212.658,121.615ZM6.06,74.289a3.064,3.064,0,0,1-1.705-.6,5.25,5.25,0,0,1-2.206-3.66c-.263-2.053.826-4.052,1.8-5.564a7.145,7.145,0,0,1,2.657-2.657A3.569,3.569,0,0,1,8.152,61.4a2.357,2.357,0,0,1,2.219,1.912,8.24,8.24,0,0,0,.813,1.585,4.648,4.648,0,0,1,.992,3.028,4.772,4.772,0,0,1-1.1,2.1l-.343.436a16.242,16.242,0,0,1-2.815,3.023A3.267,3.267,0,0,1,6.06,74.289Zm30.923-54.51a4.031,4.031,0,0,1-1.055-.2l-.14-.039c-.31-.088-.806-.335-.7-.7a.794.794,0,0,1,.351-.351,3.713,3.713,0,0,1,1.5-.416,1.6,1.6,0,0,1,.906.265A.649.649,0,0,1,38.2,19a.987.987,0,0,1-.71.7A1.469,1.469,0,0,1,36.984,19.779Zm4.8-.067a2.015,2.015,0,0,1-1.283-.368,1.129,1.129,0,0,1-.443-.834,1.229,1.229,0,0,1,.343-.971,2.846,2.846,0,0,1,1.047-.562l.106-.04a3.894,3.894,0,0,0,1.8-1.3,1.008,1.008,0,0,1,.4-.5,2.242,2.242,0,0,1,1-.175c1.345,0,3.5.577,3.826,1.482.122.344-.036.7-.469,1.049A10.759,10.759,0,0,1,42.156,19.7C42.023,19.707,41.9,19.712,41.784,19.712Zm68.1-7.994c-4.914,0-4.914-2.162-4.914-3.453,0-1.544,2.033-1.742,3.8-1.742.384,0,.76.009,1.142.02l.078,0c.339.009.659.018.939.018q.132,0,.252,0c1.907,0,3.459,1.147,3.459,2.557,0,1.354-1.487,2.453-3.459,2.556C110.725,11.7,110.287,11.718,109.885,11.718Z" transform="translate(335.243 175.999)"/>
    <path id="路径_3160" data-name="路径 3160" class="cls-3" d="M33.338,53.74q-3.562-6.107-7.058-12.253L43.335,22.236,23,37.828S15.7,32.3,10.932,28.753c-2.622-2.466.141-4.036.72-4.218.634-.173,27.076-7.416,37.638-10.32,2.345-.553,3.284,1.181,2.659,2.967L37.61,53.484c-.245.553-2.1,3.126-4.273.256Z" transform="translate(481.391 173.595)"/>
    <path id="Shape" class="cls-4" d="M31.587,0C31.587,19.446,16.593,31.707,0,39.5" transform="matrix(0.788, 0.616, -0.616, 0.788, 480.28, 195.735)"/>
    <g id="组_4565" data-name="组 4565" class="cls-5" transform="translate(479.284 288.413)">
      <path id="路径_3093" data-name="路径 3093" class="cls-3" d="M611.028,653.836c-1.153-2.206,1.5-4.562,3.96-5.013s5.214-.1,7.119-1.654c2.607-2.055,2.456-6.517,5.314-8.172,2.306-1.3,5.364-.05,7.771-1.1,3.008-1.3,3.86-5.514,6.868-6.918,2.356-1.153,5.464.15,6.668,2.456a6.971,6.971,0,0,1-1,7.369c-1.3,1.554-3.259,2.707-4.061,4.562-1.253,2.958.752,6.517-.451,9.525-2.156,5.515-12.383,3.86-14.187,9.525a17.134,17.134,0,0,0-.351,3.96c-.3,3.91-3.058,7.319-6.467,9.275s-7.419,2.607-11.33,2.908a8.8,8.8,0,0,1-4.713-.6,7.708,7.708,0,0,1-3.008-3.309c-4.712-8.472-6.668-19.6,7.871-22.81" transform="translate(-599.697 -630.548)"/>
    </g>
    <g id="组_4566" data-name="组 4566" class="cls-5" transform="translate(346.825 268.061)">
      <path id="路径_3094" data-name="路径 3094" class="cls-3" d="M429.1,633.3c1.753-2.849-1.534-6.246-4.766-7.068s-6.9-.658-9.368-2.9c-3.232-3.013-2.63-8.985-6.3-11.45-2.958-1.972-7.122-.6-10.3-2.246-3.945-2.027-4.6-7.78-8.437-9.971-3.068-1.753-7.341-.383-9.2,2.63a9.281,9.281,0,0,0,.6,9.971c1.589,2.246,4.054,3.945,4.985,6.52,1.425,4.054-1.643,8.656-.383,12.765,2.356,7.615,16.217,6.41,17.97,14.19.384,1.753.055,3.506.055,5.314,0,5.26,3.342,10.136,7.725,13.094s9.642,4.273,14.847,5.04c2.137.329,4.383.548,6.355-.329a10.531,10.531,0,0,0,4.383-4.109c7.177-11.012,10.9-25.695-8.163-31.447" transform="translate(-379.54 -598.886)"/>
    </g>
    <g id="组_4568" data-name="组 4568" transform="translate(480.593 253.196)">
      <g id="组_4567" data-name="组 4567" transform="translate(0 9.644)">
        <path id="路径_3096" data-name="路径 3096" class="cls-3" d="M603.206,641.432c3.559-1.5,6.718-4.362,9.375-7.069,7.119-7.369,11.53-16.945,13.887-26.871a100.411,100.411,0,0,0,2.156-27.372c-.05-.752-1.253-.8-1.2,0,1,20.6-3.108,45.821-21.507,58.354a21.261,21.261,0,0,1-3.259,1.905c-.752.3-.15,1.354.551,1.053Z" transform="translate(-602.307 -579.537)"/>
      </g>
      <path id="路径_3097" data-name="路径 3097" class="cls-3" d="M650.8,620.72s1.153-6.668,9.976-7.72C660.826,613,657.568,620.871,650.8,620.72Z" transform="translate(-626.49 -586.58)"/>
      <path id="路径_3098" data-name="路径 3098" class="cls-3" d="M645.1,642.744s2.707-6.216,11.53-5.164C656.58,637.581,651.617,644.5,645.1,642.744Z" transform="translate(-623.647 -598.778)"/>
      <path id="路径_3099" data-name="路径 3099" class="cls-3" d="M637.6,662.058s4.01-5.464,12.383-2.456C649.983,659.6,643.566,665.216,637.6,662.058Z" transform="translate(-619.907 -609.369)"/>
      <path id="路径_3100" data-name="路径 3100" class="cls-3" d="M653.5,600.17s1.153-6.567,9.826-7.57C663.326,592.6,660.167,600.37,653.5,600.17Z" transform="translate(-627.836 -576.407)"/>
      <path id="路径_3101" data-name="路径 3101" class="cls-3" d="M651.2,572.683s-4.963-4.462-1.2-12.383C650,560.35,654.863,567.118,651.2,572.683Z" transform="translate(-625.389 -560.3)"/>
      <path id="路径_3102" data-name="路径 3102" class="cls-3" d="M646.32,588.675s-6.567-1.2-7.52-9.876C638.85,578.749,646.57,582.008,646.32,588.675Z" transform="translate(-620.505 -569.525)"/>
      <path id="路径_3103" data-name="路径 3103" class="cls-3" d="M645.02,608.576s-6.567-1.2-7.52-9.876C637.55,598.7,645.271,601.909,645.02,608.576Z" transform="translate(-619.857 -579.449)"/>
      <path id="路径_3104" data-name="路径 3104" class="cls-3" d="M642.368,626.777S635.9,625.123,635.6,616.4C635.6,616.349,643.07,620.109,642.368,626.777Z" transform="translate(-618.91 -588.275)"/>
      <path id="路径_3105" data-name="路径 3105" class="cls-3" d="M636.468,645.377S630,643.723,629.7,635C629.7,635,637.17,638.76,636.468,645.377Z" transform="translate(-615.967 -597.551)"/>
    </g>
    <g id="组_4570" data-name="组 4570" transform="translate(355.712 244.181)">
      <g id="组_4569" data-name="组 4569" transform="translate(9.881 10.539)">
        <path id="路径_3106" data-name="路径 3106" class="cls-3" d="M447.257,642.178c-3.89-1.644-7.341-4.766-10.245-7.725-7.78-8.054-12.6-18.518-15.176-29.366a109.734,109.734,0,0,1-2.356-29.913c.055-.822,1.37-.877,1.315,0-1.1,22.517,3.4,50.075,23.5,63.771a23.253,23.253,0,0,0,3.561,2.082c.822.329.164,1.479-.6,1.15Z" transform="translate(-419.336 -574.537)"/>
      </g>
      <path id="路径_3107" data-name="路径 3107" class="cls-3" d="M414.6,616.437s-1.26-7.287-10.9-8.437C403.645,608,407.206,616.6,414.6,616.437Z" transform="translate(-402.385 -579.128)"/>
      <path id="路径_3108" data-name="路径 3108" class="cls-3" d="M419,638.235s-2.958-6.794-12.6-5.643C406.4,632.592,411.824,640.152,419,638.235Z" transform="translate(-403.606 -590.187)"/>
      <path id="路径_3109" data-name="路径 3109" class="cls-3" d="M425.732,657.369s-4.383-5.972-13.532-2.684C412.145,654.685,419.158,660.821,425.732,657.369Z" transform="translate(-406.228 -599.789)"/>
      <path id="路径_3110" data-name="路径 3110" class="cls-3" d="M412.038,595.873s-1.26-7.177-10.738-8.273C401.3,587.6,404.752,596.092,412.038,595.873Z" transform="translate(-401.3 -569.904)"/>
      <path id="路径_3111" data-name="路径 3111" class="cls-3" d="M419.45,568.832s5.424-4.876,1.315-13.532C420.765,555.355,415.4,562.751,419.45,568.832Z" transform="translate(-408.822 -555.3)"/>
      <path id="路径_3112" data-name="路径 3112" class="cls-3" d="M420.595,584.592s7.177-1.315,8.218-10.793C428.813,573.745,420.321,577.306,420.595,584.592Z" transform="translate(-410.021 -563.664)"/>
      <path id="路径_3113" data-name="路径 3113" class="cls-3" d="M421.895,604.493s7.177-1.315,8.218-10.793C430.113,593.7,421.621,597.206,421.895,604.493Z" transform="translate(-410.609 -572.662)"/>
      <path id="路径_3114" data-name="路径 3114" class="cls-3" d="M425.258,622.74s7.067-1.808,7.4-11.341C432.654,611.345,424.491,615.454,425.258,622.74Z" transform="translate(-412.109 -580.664)"/>
      <path id="路径_3115" data-name="路径 3115" class="cls-3" d="M431.158,641.341s7.067-1.808,7.4-11.341C438.554,630,430.391,634.109,431.158,641.341Z" transform="translate(-414.777 -589.075)"/>
    </g>
    <g id="组_4579" data-name="组 4579" transform="translate(411.107 186.821)">
      <path id="路径_3116" data-name="路径 3116" class="cls-6" d="M529.878,580.753h-56.8A10.58,10.58,0,0,1,462.5,570.175v-131.7A10.58,10.58,0,0,1,473.078,427.9h56.75a10.58,10.58,0,0,1,10.578,10.578v131.7A10.537,10.537,0,0,1,529.878,580.753Z" transform="translate(-462.5 -427.9)"/>
      <path id="路径_3117" data-name="路径 3117" class="cls-1" d="M533.017,579.777h-55.9a7.4,7.4,0,0,1-7.42-7.42V444.22a7.4,7.4,0,0,1,7.42-7.42h55.9a7.4,7.4,0,0,1,7.42,7.42V572.358A7.4,7.4,0,0,1,533.017,579.777Z" transform="translate(-466.09 -432.338)"/>
      <path id="路径_3118" data-name="路径 3118" class="cls-6" d="M534.328,435.5h-4.612a2.568,2.568,0,0,0-2.557,2.557v1.8a2.567,2.567,0,0,1-2.557,2.557H504.1a2.568,2.568,0,0,1-2.557-2.557v-1.8a2.567,2.567,0,0,0-2.557-2.557H485.9v-1.3h48.428Z" transform="translate(-474.169 -431.042)"/>
    </g>
    <path id="路径_3145" data-name="路径 3145" class="cls-7" d="M525.424,734.229H277.771c-4.311,0-7.771-.719-7.771-1.614h0c0-.9,3.459-1.614,7.771-1.614H525.424s7.771.719,7.771,1.614h0C533.194,733.51,529.735,734.229,525.424,734.229Z" transform="translate(44 -392.229)"/>
    <g id="组_4513" data-name="组 4513" transform="translate(426.28 215.45)">
      <g id="组_4512" data-name="组 4512" transform="translate(0 0)">
        <path id="路径_3005" data-name="路径 3005" class="cls-8" d="M324.021,356.034a.617.617,0,1,0,.617-.617A.617.617,0,0,0,324.021,356.034Zm2.759-.016a.617.617,0,1,0,.308-.534.616.616,0,0,0-.308.534Zm1.542,2.759a.428.428,0,1,0,.428-.428A.427.427,0,0,0,328.321,358.777Zm0,0,2.177.035a.426.426,0,0,0,.214.37.431.431,0,0,0,.428,0,.428.428,0,0,0,0-.741.428.428,0,0,0-.642.37Zm0,0" transform="translate(-317.86 -348.701)"/>
        <path id="路径_3006" data-name="路径 3006" class="cls-8" d="M23.083,13.865a9.7,9.7,0,1,0,9.7,9.7,9.7,9.7,0,0,0-9.7-9.7Z" transform="translate(-13.38 -13.865)"/>
        <path id="路径_3171" data-name="路径 3171" class="cls-9" d="M137.489,84.345a.312.312,0,0,0-.145.015,6.626,6.626,0,0,0,0-.854,1.475,1.475,0,0,0-.5-.953,1.834,1.834,0,0,0-2.23,0,1.469,1.469,0,0,0-.495.953,6.51,6.51,0,0,0,0,.854.313.313,0,0,0-.145-.015c-.143.022-.242.164-.172.512s.171.579.343.566a.168.168,0,0,0,.025-.006,2.467,2.467,0,0,0,.872,1.391,1.1,1.1,0,0,0,1.37,0,2.46,2.46,0,0,0,.872-1.391.167.167,0,0,0,.025.006c.172.013.273-.218.343-.566S137.633,84.366,137.489,84.345Zm1.17,3.676a15.218,15.218,0,0,0-1.624-.649,6.771,6.771,0,0,1-.859,2.277q-.029-.621-.115-1.238a2.763,2.763,0,0,0,.228-.427.207.207,0,0,0-.188-.287h-.729a.207.207,0,0,0-.188.287,2.755,2.755,0,0,0,.228.427c-.063.449-.1.873-.115,1.238a6.762,6.762,0,0,1-.859-2.277,15.306,15.306,0,0,0-1.624.649,1.588,1.588,0,0,0-.974,1.624v.487a.812.812,0,0,0,.812.812h6.168a.812.812,0,0,0,.812-.812v-.487A1.588,1.588,0,0,0,138.659,88.021Z" transform="translate(-126.12 -77.627)"/>
      </g>
    </g>
    <g id="组_4549" data-name="组 4549" transform="translate(453.766 215.248)">
      <ellipse id="椭圆_150" data-name="椭圆 150" class="cls-6" cx="9.5" cy="10" rx="9.5" ry="10" transform="translate(0.234 -0.249)"/>
    </g>
    <g id="蒙版组_13" data-name="蒙版组 13" class="cls-10" transform="translate(414.114 191.282)">
      <rect id="矩形_1582" data-name="矩形 1582" class="cls-11" width="59.175" height="65.244" rx="2" transform="translate(6.097 79.785)"/>
      <g id="组_4580" data-name="组 4580" transform="translate(9.35 83.241)">
        <circle id="Oval" class="cls-12" cx="4.243" cy="4.243" r="4.243" transform="translate(0 0)"/>
        <circle id="Oval-2" data-name="Oval" class="cls-12" cx="4.243" cy="4.243" r="4.243" transform="translate(0 27.311)"/>
        <circle id="Oval-3" data-name="Oval" class="cls-12" cx="4.243" cy="4.243" r="4.243" transform="translate(0 13.656)"/>
        <circle id="Oval-4" data-name="Oval" class="cls-12" cx="4.243" cy="4.243" r="4.243" transform="translate(0 40.967)"/>
        <circle id="Oval-5" data-name="Oval" class="cls-12" cx="4.243" cy="4.243" r="4.243" transform="translate(0 54.623)"/>
        <rect id="Rectangle-path" class="cls-12" width="39.248" height="2.122" transform="translate(11.138 1.061)"/>
        <rect id="Rectangle-path-2" data-name="Rectangle-path" class="cls-12" width="39.248" height="2.122" transform="translate(11.138 28.372)"/>
        <rect id="Rectangle-path-3" data-name="Rectangle-path" class="cls-12" width="39.248" height="2.122" transform="translate(11.138 14.717)"/>
        <rect id="Rectangle-path-4" data-name="Rectangle-path" class="cls-12" width="39.248" height="2.122" transform="translate(11.138 42.028)"/>
        <rect id="Rectangle-path-5" data-name="Rectangle-path" class="cls-12" width="39.248" height="2.122" transform="translate(11.138 55.684)"/>
        <rect id="Rectangle-path-6" data-name="Rectangle-path" class="cls-12" width="20.685" height="2.122" transform="translate(11.138 5.834)"/>
        <rect id="Rectangle-path-7" data-name="Rectangle-path" class="cls-12" width="20.685" height="2.122" transform="translate(11.138 33.146)"/>
        <rect id="Rectangle-path-8" data-name="Rectangle-path" class="cls-12" width="20.685" height="2.122" transform="translate(11.138 19.49)"/>
        <rect id="Rectangle-path-9" data-name="Rectangle-path" class="cls-12" width="20.685" height="2.122" transform="translate(11.138 46.801)"/>
        <rect id="Rectangle-path-10" data-name="Rectangle-path" class="cls-12" width="20.685" height="2.122" transform="translate(11.138 60.457)"/>
      </g>
    </g>
    <path id="路径_3158" data-name="路径 3158" class="cls-13" d="M575.874,524.2h.459v.9h-.459Zm-.9,0h.459v.9h-.459Zm3.933.2-1.123-1a.432.432,0,0,0-.558,0v.8h-.46v.9h.46v.8a.431.431,0,0,0,.558,0l1.123-1A.326.326,0,0,0,578.909,524.4Z" transform="translate(-127.453 -299.518)"/>
    <rect id="矩形_1583" data-name="矩形 1583" class="cls-14" width="42.484" height="12.138" rx="4" transform="translate(427.798 246.791)"/>
    <g id="character" transform="translate(377.366 226.491)">
      <path id="路径_3149" data-name="路径 3149" class="cls-15" d="M.36.66H4.224L3,4.741H-.865Z" transform="translate(3.518 103.708)"/>
      <path id="路径_3150" data-name="路径 3150" class="cls-15" d="M-.568.449H3.3L3,4.938H-.865Z" transform="translate(26.701 103.511)"/>
      <path id="Shape-2" data-name="Shape" class="cls-16" d="M5.188,5.729c0,9,1.929,13.56.577,22.1C4.538,35.568,0,52.449,0,52.449c.577.546,1.441.273,2.882.273s2.306.273,2.883,0l7.494-24.9L14.7,17.458l7.434,9.5,1.2,24.867s.3.546,2.026.546a5.175,5.175,0,0,0,2.594-.546s2.6-23.031,2.308-26.577-7.5-19.161-7.5-20.524V0H6.629A21.377,21.377,0,0,0,5.188,5.729Z" transform="translate(2.295 52.648)"/>
      <path id="Shape-3" data-name="Shape" class="cls-15" d="M.216,5.426a10.919,10.919,0,0,1,0-4.323C.985.526,2.522-.454,2.522.238c0,.865.865,2.018,1.729,4.035a2.2,2.2,0,0,1-1.729,3.17C1.081,7.732.5,6.579.216,5.426Z" transform="translate(1.554 58.514)"/>
      <path id="Shape-4" data-name="Shape" class="cls-15" d="M3.747,16.285a22.3,22.3,0,0,1-.577,2.882,4.025,4.025,0,0,0,2.883,1.441,4.4,4.4,0,0,0,2.882-1.153c-.192-1.057-.4-3.17.288-3.17s2.018-1.153,2.594-1.73c.288-1.729-.577-6.053-.865-10.088S5.476-1.01,3.17.72,0,5.908,0,9.078,3.747,15.708,3.747,16.285Z" transform="translate(11.23 2.351)"/>
      <path id="Shape-5" data-name="Shape" class="cls-15" d="M8.071,5.574A14.3,14.3,0,0,1,4.264,9.436c-.316-.047-1.67,2.768-1.67,2.768L0,9.9S1.428,8.342,1.572,8.2c.738-.732.99-2.448,1.981-4.9A10.478,10.478,0,0,1,5.765.1c.871-.421.52.555,1.729,2.306S8.811,4.351,8.071,5.574Z" transform="matrix(0.809, 0.588, -0.588, 0.809, 58.331, 24.469)"/>
      <path id="Shape-6" data-name="Shape" class="cls-17" d="M25.032,35.036s-14.666,1.1-16.108-1.2V16.609L5.805,24.444l-1.441,14.7c-.769.673-2.594.864-2.883,0C1.089,37.966-.248,23.579.04,21.85S6.958,6.861,6.958,6.861L12.671,3.35l1.153-2.306c.384.288,1.326.288,3.17.288s3.363,0,3.747-.288l.577,2.306L27.372,5.08l11.85,9.933,8.691-1.976,4.991-.618,3.17,2.594L51.66,16.5S41.5,20.933,40.054,20.933s-13.836-5.188-13.836-5.188c-.192,0-.577,1.556-.577,3.17C25.642,23.536,25.032,35.036,25.032,35.036Z" transform="translate(0 19.897)"/>
      <path id="Shape-7" data-name="Shape" class="cls-18" d="M0,4.612A45.489,45.489,0,0,1,.865,0H6.053C7,1.427,10.011,2.791,11.53,3.171c.922.23.961,1.441.865,2.018a53.059,53.059,0,0,1-6.918.288C2.306,5.476,0,4.9,0,4.612Z" transform="translate(24.489 107.413)"/>
      <path id="Shape-8" data-name="Shape" class="cls-18" d="M0,4.323,1.153,0,6.918.288c.576,1.153,4.9,2.306,6.053,3.171.923.692-.384,1.825-1.153,2.306H4.612A13.394,13.394,0,0,1,0,4.323Z" transform="translate(1.141 107.465)"/>
      <path id="Shape-9" data-name="Shape" class="cls-16" d="M.709,11.717C.94,12.871,3.5,16.233,4.745,17.77l4.035-.288c.1-1.441.288-4.612.288-5.765s1.729-2.594,2.594-3.17a6.115,6.115,0,0,0,1.729-2.018c.288-.865-.577-4.324-1.729-4.9a1.651,1.651,0,0,0-2.018.577A5.344,5.344,0,0,0,7.051.188C5.033-.677,3.592,1.629,1.286,3.359S.421,10.276.709,11.717Z" transform="translate(9.944 0)"/>
    </g>
    <path id="路径_3159" data-name="路径 3159" class="cls-9" d="M5.879,4.24l1.55-1.809a.406.406,0,0,0,0-.512L5.879.11a.28.28,0,0,0-.438,0,.406.406,0,0,0,0,.512L6.462,1.813H-16.69a.339.339,0,0,0-.31.362.339.339,0,0,0,.31.362H6.462L5.441,3.728a.405.405,0,0,0,0,.512.28.28,0,0,0,.438,0Z" transform="translate(453.902 250.685)"/>
    <path id="路径_3173" data-name="路径 3173" class="cls-9" d="M137.489,84.345a.312.312,0,0,0-.145.015,6.626,6.626,0,0,0,0-.854,1.475,1.475,0,0,0-.5-.953,1.834,1.834,0,0,0-2.23,0,1.469,1.469,0,0,0-.495.953,6.51,6.51,0,0,0,0,.854.313.313,0,0,0-.145-.015c-.143.022-.242.164-.172.512s.171.579.343.566a.168.168,0,0,0,.025-.006,2.467,2.467,0,0,0,.872,1.391,1.1,1.1,0,0,0,1.37,0,2.46,2.46,0,0,0,.872-1.391.167.167,0,0,0,.025.006c.172.013.273-.218.343-.566S137.633,84.366,137.489,84.345Zm1.17,3.676a15.218,15.218,0,0,0-1.624-.649,6.771,6.771,0,0,1-.859,2.277q-.029-.621-.115-1.238a2.763,2.763,0,0,0,.228-.427.207.207,0,0,0-.188-.287h-.729a.207.207,0,0,0-.188.287,2.755,2.755,0,0,0,.228.427c-.063.449-.1.873-.115,1.238a6.762,6.762,0,0,1-.859-2.277,15.306,15.306,0,0,0-1.624.649,1.588,1.588,0,0,0-.974,1.624v.487a.812.812,0,0,0,.812.812h6.168a.812.812,0,0,0,.812-.812v-.487A1.588,1.588,0,0,0,138.659,88.021Z" transform="translate(328.16 138.823)"/>
  </g>
</svg>
